# xmcd
#
# Track frame offsets:
#	150
#	17966
#	34259
#	52094
#	72680
#	91954
#	112718
#	136505
#	156314
#	176002
#
# Disc length: 2576 seconds
#
# Revision: 1
# Processed by: cddbd v1.5.2PL0 Copyright (c) Steve Scherf et al.
# Submitted via: audiograbber 1.83.01
#
DISCID=850a0e0a
DTITLE=Joe Zelek - Glad To Be Alive
DYEAR=2008
DGENRE=Country
TTITLE0=Get Our Country On
TTITLE1=Brought To You By Drinkin'
TTITLE2=Part Time Country Star
TTITLE3=Nothing In Our Way
TTITLE4=Glad To Be Alive
TTITLE5=Priceless
TTITLE6=Small Town Ohio
TTITLE7=On My Better Days
TTITLE8=Football Friday Night
TTITLE9=Jamboree In The Hills
EXTD=
EXTT0=
EXTT1=
EXTT2=
EXTT3=
EXTT4=
EXTT5=
EXTT6=
EXTT7=
EXTT8=
EXTT9=
PLAYORDER=
